<svg width="48" height="49" viewBox="0 0 48 49" fill="none" xmlns="http://www.w3.org/2000/svg">
<path fill-rule="evenodd" clip-rule="evenodd" d="M0 24.7827C0 11.5279 10.7452 0.782715 24 0.782715C37.2548 0.782715 48 11.5279 48 24.7827C48 38.0375 37.2548 48.7827 24 48.7827C10.7452 48.7827 0 38.0375 0 24.7827ZM24.0012 11.9827C20.5249 11.9827 20.0886 11.9979 18.7233 12.06C17.3606 12.1224 16.4305 12.3382 15.6166 12.6547C14.7747 12.9817 14.0606 13.419 13.3491 14.1307C12.6371 14.8422 12.1997 15.5564 11.8717 16.398C11.5544 17.2121 11.3384 18.1425 11.2771 19.5047C11.216 20.87 11.2 21.3065 11.2 24.7828C11.2 28.2592 11.2155 28.6941 11.2773 30.0594C11.34 31.4221 11.5557 32.3523 11.872 33.1661C12.1992 34.008 12.6365 34.7221 13.3483 35.4336C14.0595 36.1456 14.7736 36.584 15.615 36.911C16.4294 37.2275 17.3598 37.4432 18.7222 37.5056C20.0876 37.5678 20.5236 37.583 23.9996 37.583C27.4762 37.583 27.9111 37.5678 29.2765 37.5056C30.6391 37.4432 31.5703 37.2275 32.3848 36.911C33.2264 36.584 33.9394 36.1456 34.6506 35.4336C35.3626 34.7221 35.8 34.008 36.128 33.1664C36.4427 32.3523 36.6587 31.4219 36.7227 30.0597C36.784 28.6944 36.8 28.2592 36.8 24.7828C36.8 21.3065 36.784 20.8703 36.7227 19.5049C36.6587 18.1422 36.4427 17.2121 36.128 16.3982C35.8 15.5564 35.3626 14.8422 34.6506 14.1307C33.9386 13.4187 33.2266 12.9814 32.384 12.6547C31.5679 12.3382 30.6373 12.1224 29.2746 12.06C27.9092 11.9979 27.4746 11.9827 23.9972 11.9827H24.0012Z" fill="#EB5529"/>
<path fill-rule="evenodd" clip-rule="evenodd" d="M22.8529 14.2894C23.1937 14.2889 23.574 14.2894 24.0012 14.2894C27.4188 14.2894 27.8239 14.3017 29.1735 14.363C30.4215 14.4201 31.0989 14.6286 31.5501 14.8038C32.1474 15.0358 32.5733 15.3131 33.021 15.7612C33.469 16.2092 33.7464 16.6358 33.9789 17.2332C34.1541 17.6838 34.3629 18.3612 34.4197 19.6092C34.481 20.9585 34.4944 21.3639 34.4944 24.7799C34.4944 28.1959 34.481 28.6013 34.4197 29.9506C34.3626 31.1986 34.1541 31.876 33.9789 32.3267C33.7469 32.924 33.469 33.3493 33.021 33.7971C32.573 34.2451 32.1477 34.5224 31.5501 34.7544C31.0994 34.9304 30.4215 35.1384 29.1735 35.1955C27.8242 35.2568 27.4188 35.2702 24.0012 35.2702C20.5833 35.2702 20.1782 35.2568 18.8289 35.1955C17.5809 35.1379 16.9035 34.9294 16.4521 34.7542C15.8547 34.5221 15.428 34.2448 14.98 33.7968C14.532 33.3488 14.2547 32.9232 14.0222 32.3256C13.847 31.8749 13.6382 31.1976 13.5814 29.9496C13.52 28.6002 13.5078 28.1949 13.5078 24.7767C13.5078 21.3585 13.52 20.9553 13.5814 19.606C13.6384 18.358 13.847 17.6806 14.0222 17.2294C14.2542 16.6321 14.532 16.2054 14.98 15.7574C15.428 15.3094 15.8547 15.0321 16.4521 14.7995C16.9033 14.6235 17.5809 14.4155 18.8289 14.3582C20.0097 14.3049 20.4673 14.2889 22.8529 14.2862V14.2894ZM30.8338 16.4148C29.9858 16.4148 29.2978 17.102 29.2978 17.9502C29.2978 18.7983 29.9858 19.4863 30.8338 19.4863C31.6818 19.4863 32.3698 18.7983 32.3698 17.9502C32.3698 17.1022 31.6818 16.4148 30.8338 16.4148ZM24.0012 18.2094C20.371 18.2094 17.4278 21.1527 17.4278 24.7828C17.4278 28.413 20.371 31.3549 24.0012 31.3549C27.6314 31.3549 30.5735 28.413 30.5735 24.7828C30.5735 21.1527 27.6314 18.2094 24.0012 18.2094Z" fill="#EB5529"/>
<path fill-rule="evenodd" clip-rule="evenodd" d="M24.0012 20.5161C26.3575 20.5161 28.2679 22.4263 28.2679 24.7828C28.2679 27.1391 26.3575 29.0496 24.0012 29.0496C21.6446 29.0496 19.7345 27.1391 19.7345 24.7828C19.7345 22.4263 21.6446 20.5161 24.0012 20.5161Z" fill="#EB5529"/>
</svg>
