<svg width="290" height="157" viewBox="0 0 290 157" fill="none" xmlns="http://www.w3.org/2000/svg">
<rect x="15.5" y="2.5" width="272" height="152" stroke="#51433B" stroke-width="5"/>
<path d="M62.5588 63.096C69.5988 64.056 74.6228 66.104 77.6308 69.24C80.6388 72.312 82.1428 76.024 82.1428 80.376C82.1428 84.024 81.2148 87.256 79.3588 90.072C77.5028 92.888 74.8468 95.096 71.3908 96.696C67.9348 98.232 63.8388 99 59.1028 99C57.3748 99 55.9028 98.968 54.6868 98.904C50.5908 98.776 46.5588 98.712 42.5908 98.712C37.3428 98.712 33.3748 98.808 30.6868 99V97.08C32.9908 96.952 34.6548 96.696 35.6788 96.312C36.7668 95.928 37.5028 95.192 37.8868 94.104C38.2708 93.016 38.4628 91.256 38.4628 88.824V41.208C38.4628 38.776 38.2708 37.016 37.8868 35.928C37.5028 34.84 36.7668 34.104 35.6788 33.72C34.6548 33.336 32.9908 33.08 30.6868 32.952V31.032C33.3748 31.224 37.2788 31.32 42.3988 31.32L52.7668 31.224C53.9828 31.16 55.3588 31.128 56.8948 31.128C63.4228 31.128 68.4148 32.504 71.8708 35.256C75.3908 38.008 77.1508 41.656 77.1508 46.2C77.1508 49.912 75.9668 53.24 73.5988 56.184C71.2948 59.128 67.6148 61.368 62.5588 62.904V63.096ZM54.4948 32.952C52.5108 32.952 51.0068 33.176 49.9828 33.624C49.0228 34.072 48.3508 34.872 47.9668 36.024C47.5828 37.176 47.3908 38.904 47.3908 41.208V62.904H53.8228C59.0708 62.904 62.7188 61.496 64.7668 58.68C66.8788 55.8 67.9348 51.992 67.9348 47.256C67.9348 42.456 66.8788 38.872 64.7668 36.504C62.6548 34.136 59.2308 32.952 54.4948 32.952ZM54.5908 96.792C66.5588 96.792 72.5428 91.192 72.5428 79.992C72.5428 74.936 71.1668 71.096 68.4148 68.472C65.7268 65.848 61.4068 64.536 55.4548 64.536H47.3908V88.824C47.3908 91.128 47.5828 92.824 47.9668 93.912C48.3508 95 49.0228 95.768 49.9828 96.216C51.0068 96.6 52.5428 96.792 54.5908 96.792ZM149.171 94.2C147.699 96.376 146.227 97.944 144.755 98.904C143.283 99.864 141.331 100.344 138.899 100.344C136.275 100.344 134.099 99.576 132.371 98.04C130.707 96.504 129.459 93.816 128.627 89.976L126.515 80.376C125.747 77.048 125.011 74.488 124.307 72.696C123.667 70.904 122.675 69.464 121.331 68.376C119.987 67.288 118.099 66.744 115.667 66.744H106.547V88.824C106.547 91.256 106.739 93.016 107.123 94.104C107.507 95.192 108.211 95.928 109.235 96.312C110.323 96.696 112.019 96.952 114.323 97.08V99C111.379 98.808 107.315 98.712 102.131 98.712C96.627 98.712 92.531 98.808 89.843 99V97.08C92.147 96.952 93.811 96.696 94.835 96.312C95.923 95.928 96.659 95.192 97.043 94.104C97.427 93.016 97.619 91.256 97.619 88.824V41.208C97.619 38.776 97.427 37.016 97.043 35.928C96.659 34.84 95.923 34.104 94.835 33.72C93.811 33.336 92.147 33.08 89.843 32.952V31.032C92.531 31.224 96.435 31.32 101.555 31.32L111.923 31.224C113.139 31.16 114.515 31.128 116.051 31.128C123.475 31.128 129.171 32.696 133.139 35.832C137.171 38.904 139.187 42.904 139.187 47.832C139.187 50.328 138.579 52.856 137.363 55.416C136.211 57.912 134.227 60.184 131.411 62.232C128.659 64.216 125.043 65.56 120.563 66.264L121.715 66.456C125.939 67.16 129.011 68.44 130.931 70.296C132.851 72.152 134.259 75.096 135.155 79.128L137.555 88.92C138.195 91.864 138.867 93.912 139.571 95.064C140.275 96.216 141.235 96.792 142.451 96.792C143.539 96.792 144.435 96.504 145.139 95.928C145.907 95.352 146.771 94.424 147.731 93.144L149.171 94.2ZM113.651 32.952C111.667 32.952 110.163 33.176 109.139 33.624C108.179 34.072 107.507 34.872 107.123 36.024C106.739 37.176 106.547 38.904 106.547 41.208V64.824H112.979C119.315 64.824 123.667 63.416 126.035 60.6C128.403 57.784 129.587 53.88 129.587 48.888C129.587 43.64 128.339 39.672 125.843 36.984C123.347 34.296 119.283 32.952 113.651 32.952ZM210.285 32.952C208.045 33.08 206.381 33.432 205.293 34.008C204.205 34.52 203.469 35.416 203.085 36.696C202.701 37.912 202.509 39.736 202.509 42.168V71.064C202.509 75.672 202.189 79.64 201.549 82.968C200.973 86.232 199.981 89.048 198.573 91.416C196.973 94.168 194.605 96.344 191.469 97.944C188.397 99.544 184.909 100.344 181.005 100.344C173.965 100.344 168.589 98.616 164.877 95.16C162.061 92.536 160.173 89.56 159.213 86.232C158.253 82.904 157.773 77.944 157.773 71.352V41.208C157.773 38.776 157.581 37.016 157.197 35.928C156.813 34.84 156.077 34.104 154.989 33.72C153.965 33.336 152.301 33.08 149.997 32.952V31.032C152.685 31.224 156.781 31.32 162.285 31.32C167.469 31.32 171.533 31.224 174.477 31.032V32.952C172.173 33.08 170.477 33.336 169.389 33.72C168.365 34.104 167.661 34.84 167.277 35.928C166.893 37.016 166.701 38.776 166.701 41.208V72.984C166.701 78.104 167.053 82.36 167.757 85.752C168.461 89.144 169.901 91.864 172.077 93.912C174.317 95.96 177.581 96.984 181.869 96.984C188.653 96.984 193.421 94.808 196.173 90.456C198.925 86.104 200.301 79.992 200.301 72.12V42.168C200.301 38.712 199.661 36.344 198.381 35.064C197.165 33.784 194.893 33.08 191.565 32.952V31.032C193.869 31.224 197.133 31.32 201.357 31.32C205.197 31.32 208.173 31.224 210.285 31.032V32.952ZM191.469 10.104C192.493 9.46399 193.453 9.144 194.349 9.144C195.565 9.144 196.557 9.688 197.325 10.776C197.709 11.352 197.901 11.96 197.901 12.6C197.901 14.008 197.037 15.256 195.309 16.344C193.965 17.176 191.661 18.2 188.397 19.416C183.597 21.336 179.469 23.16 176.013 24.888L175.341 23.64C177.965 21.656 180.205 19.832 182.061 18.168C183.981 16.44 185.165 15.384 185.613 15C187.981 12.76 189.933 11.128 191.469 10.104ZM277.162 32.952C274.922 33.08 273.258 33.432 272.17 34.008C271.082 34.52 270.346 35.416 269.962 36.696C269.578 37.912 269.386 39.736 269.386 42.168V99.48H267.178L226.858 37.176V87.864C226.858 90.36 227.05 92.216 227.434 93.432C227.882 94.648 228.714 95.544 229.93 96.12C231.146 96.632 233.034 96.952 235.594 97.08V99C233.29 98.808 230.026 98.712 225.802 98.712C221.962 98.712 218.986 98.808 216.874 99V97.08C219.114 96.952 220.778 96.632 221.866 96.12C222.954 95.544 223.69 94.648 224.074 93.432C224.458 92.152 224.65 90.296 224.65 87.864V41.208C224.65 38.776 224.458 37.016 224.074 35.928C223.69 34.84 222.954 34.104 221.866 33.72C220.842 33.336 219.178 33.08 216.874 32.952V31.032C218.986 31.224 221.962 31.32 225.802 31.32C228.682 31.32 231.178 31.224 233.29 31.032L267.178 83.256V42.168C267.178 39.672 266.954 37.816 266.506 36.6C266.122 35.384 265.322 34.52 264.106 34.008C262.89 33.432 261.002 33.08 258.442 32.952V31.032C260.746 31.224 264.01 31.32 268.234 31.32C272.074 31.32 275.05 31.224 277.162 31.032V32.952ZM53.0548 138C52.4415 138.907 51.8281 139.56 51.2148 139.96C50.6015 140.36 49.7881 140.56 48.7748 140.56C47.6815 140.56 46.7748 140.24 46.0548 139.6C45.3615 138.96 44.8415 137.84 44.4948 136.24L43.6148 132.24C43.2948 130.853 42.9881 129.787 42.6948 129.04C42.4281 128.293 42.0148 127.693 41.4548 127.24C40.8948 126.787 40.1081 126.56 39.0948 126.56H35.2948V135.76C35.2948 136.773 35.3748 137.507 35.5348 137.96C35.6948 138.413 35.9881 138.72 36.4148 138.88C36.8681 139.04 37.5748 139.147 38.5348 139.2V140C37.3081 139.92 35.6148 139.88 33.4548 139.88C31.1615 139.88 29.4548 139.92 28.3348 140V139.2C29.2948 139.147 29.9881 139.04 30.4148 138.88C30.8681 138.72 31.1748 138.413 31.3348 137.96C31.4948 137.507 31.5748 136.773 31.5748 135.76V115.92C31.5748 114.907 31.4948 114.173 31.3348 113.72C31.1748 113.267 30.8681 112.96 30.4148 112.8C29.9881 112.64 29.2948 112.533 28.3348 112.48V111.68C29.4548 111.76 31.0815 111.8 33.2148 111.8L37.5348 111.76C38.0415 111.733 38.6148 111.72 39.2548 111.72C42.3481 111.72 44.7215 112.373 46.3748 113.68C48.0548 114.96 48.8948 116.627 48.8948 118.68C48.8948 119.72 48.6415 120.773 48.1348 121.84C47.6548 122.88 46.8281 123.827 45.6548 124.68C44.5081 125.507 43.0015 126.067 41.1348 126.36L41.6148 126.44C43.3748 126.733 44.6548 127.267 45.4548 128.04C46.2548 128.813 46.8415 130.04 47.2148 131.72L48.2148 135.8C48.4815 137.027 48.7615 137.88 49.0548 138.36C49.3481 138.84 49.7481 139.08 50.2548 139.08C50.7081 139.08 51.0815 138.96 51.3748 138.72C51.6948 138.48 52.0548 138.093 52.4548 137.56L53.0548 138ZM38.2548 112.48C37.4281 112.48 36.8015 112.573 36.3748 112.76C35.9748 112.947 35.6948 113.28 35.5348 113.76C35.3748 114.24 35.2948 114.96 35.2948 115.92V125.76H37.9748C40.6148 125.76 42.4281 125.173 43.4148 124C44.4015 122.827 44.8948 121.2 44.8948 119.12C44.8948 116.933 44.3748 115.28 43.3348 114.16C42.2948 113.04 40.6015 112.48 38.2548 112.48ZM74.7523 134.88C74.7523 136.4 74.8456 138.107 75.0323 140C73.219 139.92 70.1656 139.88 65.8723 139.88C60.7523 139.88 56.8856 139.92 54.2723 140V139.2C55.2323 139.147 55.9256 139.04 56.3523 138.88C56.8056 138.72 57.1123 138.413 57.2723 137.96C57.4323 137.507 57.5123 136.773 57.5123 135.76V115.92C57.5123 114.907 57.4323 114.173 57.2723 113.72C57.1123 113.267 56.8056 112.96 56.3523 112.8C55.9256 112.64 55.2323 112.533 54.2723 112.48V111.68C56.8856 111.76 60.7523 111.8 65.8723 111.8C69.7923 111.8 72.579 111.76 74.2323 111.68C74.0456 113.44 73.9523 115.013 73.9523 116.4C73.9523 117.44 73.9923 118.267 74.0723 118.88H73.1523C72.9656 117.147 72.7256 115.867 72.4323 115.04C72.139 114.187 71.6456 113.573 70.9523 113.2C70.259 112.8 69.2056 112.6 67.7923 112.6H64.4723C63.5123 112.6 62.8056 112.68 62.3523 112.84C61.9256 112.973 61.6323 113.267 61.4723 113.72C61.3123 114.173 61.2323 114.907 61.2323 115.92V125.36H63.8723C64.8056 125.36 65.5256 125.147 66.0323 124.72C66.539 124.267 66.8723 123.747 67.0323 123.16C67.219 122.547 67.3656 121.787 67.4723 120.88L67.5923 120.08H68.5123C68.4323 121.2 68.3923 122.453 68.3923 123.84V125.76C68.3923 127.12 68.4723 129.013 68.6323 131.44H67.7123C67.6856 131.253 67.6056 130.613 67.4723 129.52C67.339 128.4 66.9656 127.56 66.3523 127C65.7656 126.44 64.939 126.16 63.8723 126.16H61.2323V135.76C61.2323 136.773 61.3123 137.507 61.4723 137.96C61.6323 138.413 61.9256 138.72 62.3523 138.88C62.8056 139.013 63.5123 139.08 64.4723 139.08H67.3923C69.0456 139.08 70.299 138.867 71.1523 138.44C72.0323 137.987 72.6723 137.28 73.0723 136.32C73.4723 135.333 73.7656 133.893 73.9523 132H74.8723C74.7923 132.72 74.7523 133.68 74.7523 134.88ZM87.2073 111.24C88.3806 111.24 89.3006 111.373 89.9673 111.64C90.6606 111.88 91.3673 112.24 92.0873 112.72C92.674 113.093 93.1273 113.28 93.4473 113.28C93.6873 113.28 93.874 113.147 94.0073 112.88C94.1406 112.587 94.2473 112.133 94.3273 111.52H95.2473C95.114 113.067 95.0473 115.787 95.0473 119.68H94.1273C93.9673 117.52 93.3406 115.707 92.2473 114.24C91.1806 112.747 89.6206 112 87.5673 112C86.1273 112 84.954 112.44 84.0473 113.32C83.1406 114.173 82.6873 115.28 82.6873 116.64C82.6873 117.653 82.914 118.533 83.3673 119.28C83.8473 120.027 84.4473 120.667 85.1673 121.2C85.8873 121.733 86.914 122.413 88.2473 123.24L89.4073 123.96C91.0873 125 92.4073 125.92 93.3673 126.72C94.354 127.493 95.1406 128.387 95.7273 129.4C96.314 130.413 96.6073 131.6 96.6073 132.96C96.6073 135.387 95.8073 137.267 94.2073 138.6C92.6073 139.907 90.5806 140.56 88.1273 140.56C86.8473 140.56 85.794 140.427 84.9673 140.16C84.1673 139.893 83.394 139.533 82.6473 139.08C82.0606 138.707 81.6073 138.52 81.2873 138.52C81.0473 138.52 80.8606 138.667 80.7273 138.96C80.594 139.227 80.4873 139.667 80.4073 140.28H79.4873C79.594 138.813 79.6473 135.613 79.6473 130.68H80.5673C80.754 133.373 81.4206 135.56 82.5673 137.24C83.714 138.92 85.474 139.76 87.8473 139.76C89.2873 139.76 90.514 139.32 91.5273 138.44C92.5406 137.533 93.0473 136.2 93.0473 134.44C93.0473 132.947 92.5406 131.68 91.5273 130.64C90.5406 129.6 88.9673 128.427 86.8073 127.12C85.234 126.16 83.954 125.307 82.9673 124.56C82.0073 123.813 81.2206 122.92 80.6073 121.88C79.994 120.813 79.6873 119.573 79.6873 118.16C79.6873 115.92 80.4073 114.213 81.8473 113.04C83.2873 111.84 85.074 111.24 87.2073 111.24ZM122.249 111.68C122.062 113.573 121.969 115.28 121.969 116.8C121.969 118.133 122.009 119.227 122.089 120.08H121.169C120.956 118.027 120.689 116.507 120.369 115.52C120.049 114.507 119.489 113.773 118.689 113.32C117.889 112.84 116.662 112.6 115.009 112.6H112.849V135.36C112.849 136.48 112.956 137.293 113.169 137.8C113.382 138.307 113.756 138.653 114.289 138.84C114.822 139.027 115.689 139.147 116.889 139.2V140C115.502 139.92 113.542 139.88 111.009 139.88C108.342 139.88 106.369 139.92 105.089 140V139.2C106.289 139.147 107.156 139.027 107.689 138.84C108.222 138.653 108.596 138.307 108.809 137.8C109.022 137.293 109.129 136.48 109.129 135.36V112.6H106.969C105.316 112.6 104.089 112.84 103.289 113.32C102.489 113.773 101.929 114.507 101.609 115.52C101.289 116.507 101.022 118.027 100.809 120.08H99.8888C99.9688 119.227 100.009 118.133 100.009 116.8C100.009 115.28 99.9155 113.573 99.7288 111.68C101.942 111.76 105.702 111.8 111.009 111.8C116.289 111.8 120.036 111.76 122.249 111.68ZM144.218 136.64C144.858 138.293 145.778 139.147 146.978 139.2V140C145.911 139.92 144.484 139.88 142.698 139.88C140.404 139.88 138.698 139.92 137.578 140V139.2C138.591 139.147 139.311 139.027 139.738 138.84C140.191 138.627 140.418 138.253 140.418 137.72C140.418 137.267 140.258 136.64 139.938 135.84L137.498 129.28H127.818L126.178 133.52C125.644 134.96 125.378 136.053 125.378 136.8C125.378 137.627 125.658 138.227 126.218 138.6C126.804 138.973 127.684 139.173 128.858 139.2V140C127.338 139.92 125.804 139.88 124.258 139.88C123.058 139.88 122.058 139.92 121.258 140V139.2C122.591 138.88 123.644 137.72 124.418 135.72L133.818 111.48H134.458L144.218 136.64ZM137.178 128.48L132.698 116.52L128.138 128.48H137.178ZM172.933 112.48C172 112.533 171.306 112.68 170.853 112.92C170.4 113.133 170.093 113.507 169.933 114.04C169.773 114.547 169.693 115.307 169.693 116.32V128.36C169.693 130.28 169.56 131.933 169.293 133.32C169.053 134.68 168.64 135.853 168.053 136.84C167.386 137.987 166.4 138.893 165.093 139.56C163.813 140.227 162.36 140.56 160.733 140.56C157.8 140.56 155.56 139.84 154.013 138.4C152.84 137.307 152.053 136.067 151.653 134.68C151.253 133.293 151.053 131.227 151.053 128.48V115.92C151.053 114.907 150.973 114.173 150.813 113.72C150.653 113.267 150.346 112.96 149.893 112.8C149.466 112.64 148.773 112.533 147.813 112.48V111.68C148.933 111.76 150.64 111.8 152.933 111.8C155.093 111.8 156.786 111.76 158.013 111.68V112.48C157.053 112.533 156.346 112.64 155.893 112.8C155.466 112.96 155.173 113.267 155.013 113.72C154.853 114.173 154.773 114.907 154.773 115.92V129.16C154.773 131.293 154.92 133.067 155.213 134.48C155.506 135.893 156.106 137.027 157.013 137.88C157.946 138.733 159.306 139.16 161.093 139.16C163.92 139.16 165.906 138.253 167.053 136.44C168.2 134.627 168.773 132.08 168.773 128.8V116.32C168.773 114.88 168.506 113.893 167.973 113.36C167.466 112.827 166.52 112.533 165.133 112.48V111.68C166.093 111.76 167.453 111.8 169.213 111.8C170.813 111.8 172.053 111.76 172.933 111.68V112.48ZM200.399 138C199.785 138.907 199.172 139.56 198.559 139.96C197.945 140.36 197.132 140.56 196.119 140.56C195.025 140.56 194.119 140.24 193.399 139.6C192.705 138.96 192.185 137.84 191.839 136.24L190.959 132.24C190.639 130.853 190.332 129.787 190.039 129.04C189.772 128.293 189.359 127.693 188.799 127.24C188.239 126.787 187.452 126.56 186.439 126.56H182.639V135.76C182.639 136.773 182.719 137.507 182.879 137.96C183.039 138.413 183.332 138.72 183.759 138.88C184.212 139.04 184.919 139.147 185.879 139.2V140C184.652 139.92 182.959 139.88 180.799 139.88C178.505 139.88 176.799 139.92 175.679 140V139.2C176.639 139.147 177.332 139.04 177.759 138.88C178.212 138.72 178.519 138.413 178.679 137.96C178.839 137.507 178.919 136.773 178.919 135.76V115.92C178.919 114.907 178.839 114.173 178.679 113.72C178.519 113.267 178.212 112.96 177.759 112.8C177.332 112.64 176.639 112.533 175.679 112.48V111.68C176.799 111.76 178.425 111.8 180.559 111.8L184.879 111.76C185.385 111.733 185.959 111.72 186.599 111.72C189.692 111.72 192.065 112.373 193.719 113.68C195.399 114.96 196.239 116.627 196.239 118.68C196.239 119.72 195.985 120.773 195.479 121.84C194.999 122.88 194.172 123.827 192.999 124.68C191.852 125.507 190.345 126.067 188.479 126.36L188.959 126.44C190.719 126.733 191.999 127.267 192.799 128.04C193.599 128.813 194.185 130.04 194.559 131.72L195.559 135.8C195.825 137.027 196.105 137.88 196.399 138.36C196.692 138.84 197.092 139.08 197.599 139.08C198.052 139.08 198.425 138.96 198.719 138.72C199.039 138.48 199.399 138.093 199.799 137.56L200.399 138ZM185.599 112.48C184.772 112.48 184.145 112.573 183.719 112.76C183.319 112.947 183.039 113.28 182.879 113.76C182.719 114.24 182.639 114.96 182.639 115.92V125.76H185.319C187.959 125.76 189.772 125.173 190.759 124C191.745 122.827 192.239 121.2 192.239 119.12C192.239 116.933 191.719 115.28 190.679 114.16C189.639 113.04 187.945 112.48 185.599 112.48ZM222.616 136.64C223.256 138.293 224.176 139.147 225.376 139.2V140C224.309 139.92 222.883 139.88 221.096 139.88C218.803 139.88 217.096 139.92 215.976 140V139.2C216.989 139.147 217.709 139.027 218.136 138.84C218.589 138.627 218.816 138.253 218.816 137.72C218.816 137.267 218.656 136.64 218.336 135.84L215.896 129.28H206.216L204.576 133.52C204.043 134.96 203.776 136.053 203.776 136.8C203.776 137.627 204.056 138.227 204.616 138.6C205.203 138.973 206.083 139.173 207.256 139.2V140C205.736 139.92 204.203 139.88 202.656 139.88C201.456 139.88 200.456 139.92 199.656 140V139.2C200.989 138.88 202.043 137.72 202.816 135.72L212.216 111.48H212.856L222.616 136.64ZM215.576 128.48L211.096 116.52L206.536 128.48H215.576ZM251.15 112.48C250.217 112.533 249.523 112.68 249.07 112.92C248.617 113.133 248.31 113.507 248.15 114.04C247.99 114.547 247.91 115.307 247.91 116.32V140.2H246.99L230.19 114.24V135.36C230.19 136.4 230.27 137.173 230.43 137.68C230.617 138.187 230.963 138.56 231.47 138.8C231.977 139.013 232.763 139.147 233.83 139.2V140C232.87 139.92 231.51 139.88 229.75 139.88C228.15 139.88 226.91 139.92 226.03 140V139.2C226.963 139.147 227.657 139.013 228.11 138.8C228.563 138.56 228.87 138.187 229.03 137.68C229.19 137.147 229.27 136.373 229.27 135.36V115.92C229.27 114.907 229.19 114.173 229.03 113.72C228.87 113.267 228.563 112.96 228.11 112.8C227.683 112.64 226.99 112.533 226.03 112.48V111.68C226.91 111.76 228.15 111.8 229.75 111.8C230.95 111.8 231.99 111.76 232.87 111.68L246.99 133.44V116.32C246.99 115.28 246.897 114.507 246.71 114C246.55 113.493 246.217 113.133 245.71 112.92C245.203 112.68 244.417 112.533 243.35 112.48V111.68C244.31 111.76 245.67 111.8 247.43 111.8C249.03 111.8 250.27 111.76 251.15 111.68V112.48ZM276.272 111.68C276.086 113.573 275.992 115.28 275.992 116.8C275.992 118.133 276.032 119.227 276.112 120.08H275.192C274.979 118.027 274.712 116.507 274.392 115.52C274.072 114.507 273.512 113.773 272.712 113.32C271.912 112.84 270.686 112.6 269.032 112.6H266.872V135.36C266.872 136.48 266.979 137.293 267.192 137.8C267.406 138.307 267.779 138.653 268.312 138.84C268.846 139.027 269.712 139.147 270.912 139.2V140C269.526 139.92 267.566 139.88 265.032 139.88C262.366 139.88 260.392 139.92 259.112 140V139.2C260.312 139.147 261.179 139.027 261.712 138.84C262.246 138.653 262.619 138.307 262.832 137.8C263.046 137.293 263.152 136.48 263.152 135.36V112.6H260.992C259.339 112.6 258.112 112.84 257.312 113.32C256.512 113.773 255.952 114.507 255.632 115.52C255.312 116.507 255.046 118.027 254.832 120.08H253.912C253.992 119.227 254.032 118.133 254.032 116.8C254.032 115.28 253.939 113.573 253.752 111.68C255.966 111.76 259.726 111.8 265.032 111.8C270.312 111.8 274.059 111.76 276.272 111.68Z" fill="#51433B"/>
</svg>
