<svg width="131" height="74" viewBox="0 0 131 74" fill="none" xmlns="http://www.w3.org/2000/svg">
<rect x="2.5" y="2.5" width="126" height="69" stroke="#160E0C" stroke-width="5"/>
<path d="M22.9138 29.7287C26.1404 30.1687 28.4431 31.1074 29.8218 32.5447C31.2004 33.9527 31.8898 35.6541 31.8898 37.6487C31.8898 39.3207 31.4644 40.8021 30.6138 42.0927C29.7631 43.3834 28.5458 44.3954 26.9618 45.1287C25.3778 45.8327 23.5004 46.1847 21.3298 46.1847C20.5378 46.1847 19.8631 46.1701 19.3058 46.1407C17.4284 46.0821 15.5804 46.0527 13.7618 46.0527C11.3564 46.0527 9.53776 46.0967 8.30576 46.1847V45.3047C9.36176 45.2461 10.1244 45.1287 10.5938 44.9527C11.0924 44.7767 11.4298 44.4394 11.6058 43.9407C11.7818 43.4421 11.8698 42.6354 11.8698 41.5207V19.6967C11.8698 18.5821 11.7818 17.7754 11.6058 17.2767C11.4298 16.7781 11.0924 16.4407 10.5938 16.2647C10.1244 16.0887 9.36176 15.9714 8.30576 15.9127V15.0327C9.53776 15.1207 11.3271 15.1647 13.6738 15.1647L18.4258 15.1207C18.9831 15.0914 19.6138 15.0767 20.3178 15.0767C23.3098 15.0767 25.5978 15.7074 27.1818 16.9687C28.7951 18.2301 29.6018 19.9021 29.6018 21.9847C29.6018 23.6861 29.0591 25.2114 27.9738 26.5607C26.9178 27.9101 25.2311 28.9367 22.9138 29.6407V29.7287ZM19.2178 15.9127C18.3084 15.9127 17.6191 16.0154 17.1498 16.2207C16.7098 16.4261 16.4018 16.7927 16.2258 17.3207C16.0498 17.8487 15.9618 18.6407 15.9618 19.6967V29.6407H18.9098C21.3151 29.6407 22.9871 28.9954 23.9258 27.7047C24.8938 26.3847 25.3778 24.6394 25.3778 22.4687C25.3778 20.2687 24.8938 18.6261 23.9258 17.5407C22.9578 16.4554 21.3884 15.9127 19.2178 15.9127ZM19.2618 45.1727C24.7471 45.1727 27.4898 42.6061 27.4898 37.4727C27.4898 35.1554 26.8591 33.3954 25.5978 32.1927C24.3658 30.9901 22.3858 30.3887 19.6578 30.3887H15.9618V41.5207C15.9618 42.5767 16.0498 43.3541 16.2258 43.8527C16.4018 44.3514 16.7098 44.7034 17.1498 44.9087C17.6191 45.0847 18.3231 45.1727 19.2618 45.1727ZM62.611 43.9847C61.9364 44.9821 61.2617 45.7007 60.587 46.1407C59.9124 46.5807 59.0177 46.8007 57.903 46.8007C56.7004 46.8007 55.703 46.4487 54.911 45.7447C54.1484 45.0407 53.5764 43.8087 53.195 42.0487L52.227 37.6487C51.875 36.1234 51.5377 34.9501 51.215 34.1287C50.9217 33.3074 50.467 32.6474 49.851 32.1487C49.235 31.6501 48.3697 31.4007 47.255 31.4007H43.075V41.5207C43.075 42.6354 43.163 43.4421 43.339 43.9407C43.515 44.4394 43.8377 44.7767 44.307 44.9527C44.8057 45.1287 45.583 45.2461 46.639 45.3047V46.1847C45.2897 46.0967 43.427 46.0527 41.051 46.0527C38.5284 46.0527 36.651 46.0967 35.419 46.1847V45.3047C36.475 45.2461 37.2377 45.1287 37.707 44.9527C38.2057 44.7767 38.543 44.4394 38.719 43.9407C38.895 43.4421 38.983 42.6354 38.983 41.5207V19.6967C38.983 18.5821 38.895 17.7754 38.719 17.2767C38.543 16.7781 38.2057 16.4407 37.707 16.2647C37.2377 16.0887 36.475 15.9714 35.419 15.9127V15.0327C36.651 15.1207 38.4404 15.1647 40.787 15.1647L45.539 15.1207C46.0964 15.0914 46.727 15.0767 47.431 15.0767C50.8337 15.0767 53.4444 15.7954 55.263 17.2327C57.111 18.6407 58.035 20.4741 58.035 22.7327C58.035 23.8767 57.7564 25.0354 57.199 26.2087C56.671 27.3527 55.7617 28.3941 54.471 29.3327C53.2097 30.2421 51.5524 30.8581 49.499 31.1807L50.027 31.2687C51.963 31.5914 53.371 32.1781 54.251 33.0287C55.131 33.8794 55.7764 35.2287 56.187 37.0767L57.287 41.5647C57.5804 42.9141 57.8884 43.8527 58.211 44.3807C58.5337 44.9087 58.9737 45.1727 59.531 45.1727C60.0297 45.1727 60.4404 45.0407 60.763 44.7767C61.115 44.5127 61.511 44.0874 61.951 43.5007L62.611 43.9847ZM46.331 15.9127C45.4217 15.9127 44.7324 16.0154 44.263 16.2207C43.823 16.4261 43.515 16.7927 43.339 17.3207C43.163 17.8487 43.075 18.6407 43.075 19.6967V30.5207H46.023C48.927 30.5207 50.9217 29.8754 52.007 28.5847C53.0924 27.2941 53.635 25.5047 53.635 23.2167C53.635 20.8114 53.063 18.9927 51.919 17.7607C50.775 16.5287 48.9124 15.9127 46.331 15.9127ZM90.6215 15.9127C89.5948 15.9714 88.8322 16.1327 88.3335 16.3967C87.8348 16.6314 87.4975 17.0421 87.3215 17.6287C87.1455 18.1861 87.0575 19.0221 87.0575 20.1367V33.3807C87.0575 35.4927 86.9108 37.3114 86.6175 38.8367C86.3535 40.3327 85.8988 41.6234 85.2535 42.7087C84.5202 43.9701 83.4348 44.9674 81.9975 45.7007C80.5895 46.4341 78.9908 46.8007 77.2015 46.8007C73.9748 46.8007 71.5108 46.0087 69.8095 44.4247C68.5188 43.2221 67.6535 41.8581 67.2135 40.3327C66.7735 38.8074 66.5535 36.5341 66.5535 33.5127V19.6967C66.5535 18.5821 66.4655 17.7754 66.2895 17.2767C66.1135 16.7781 65.7762 16.4407 65.2775 16.2647C64.8082 16.0887 64.0455 15.9714 62.9895 15.9127V15.0327C64.2215 15.1207 66.0988 15.1647 68.6215 15.1647C70.9975 15.1647 72.8602 15.1207 74.2095 15.0327V15.9127C73.1535 15.9714 72.3762 16.0887 71.8775 16.2647C71.4082 16.4407 71.0855 16.7781 70.9095 17.2767C70.7335 17.7754 70.6455 18.5821 70.6455 19.6967V34.2607C70.6455 36.6074 70.8068 38.5581 71.1295 40.1127C71.4522 41.6674 72.1122 42.9141 73.1095 43.8527C74.1362 44.7914 75.6322 45.2607 77.5975 45.2607C80.7068 45.2607 82.8922 44.2634 84.1535 42.2687C85.4148 40.2741 86.0455 37.4727 86.0455 33.8647V20.1367C86.0455 18.5527 85.7522 17.4674 85.1655 16.8807C84.6082 16.2941 83.5668 15.9714 82.0415 15.9127V15.0327C83.0975 15.1207 84.5935 15.1647 86.5295 15.1647C88.2895 15.1647 89.6535 15.1207 90.6215 15.0327V15.9127ZM81.9975 5.44072C82.4668 5.14739 82.9068 5.00072 83.3175 5.00072C83.8748 5.00072 84.3295 5.25005 84.6815 5.74872C84.8575 6.01272 84.9455 6.29139 84.9455 6.58472C84.9455 7.23006 84.5495 7.80205 83.7575 8.30072C83.1415 8.68205 82.0855 9.15139 80.5895 9.70872C78.3895 10.5887 76.4975 11.4247 74.9135 12.2167L74.6055 11.6447C75.8082 10.7354 76.8348 9.89939 77.6855 9.13672C78.5655 8.34472 79.1082 7.86072 79.3135 7.68472C80.3988 6.65805 81.2935 5.91005 81.9975 5.44072ZM121.274 15.9127C120.247 15.9714 119.484 16.1327 118.986 16.3967C118.487 16.6314 118.15 17.0421 117.974 17.6287C117.798 18.1861 117.71 19.0221 117.71 20.1367V46.4047H116.698L98.2177 17.8487V41.0807C98.2177 42.2247 98.3057 43.0754 98.4817 43.6327C98.687 44.1901 99.0684 44.6007 99.6257 44.8647C100.183 45.0994 101.048 45.2461 102.222 45.3047V46.1847C101.166 46.0967 99.6697 46.0527 97.7337 46.0527C95.9737 46.0527 94.6097 46.0967 93.6417 46.1847V45.3047C94.6684 45.2461 95.431 45.0994 95.9297 44.8647C96.4284 44.6007 96.7657 44.1901 96.9417 43.6327C97.1177 43.0461 97.2057 42.1954 97.2057 41.0807V19.6967C97.2057 18.5821 97.1177 17.7754 96.9417 17.2767C96.7657 16.7781 96.4284 16.4407 95.9297 16.2647C95.4604 16.0887 94.6977 15.9714 93.6417 15.9127V15.0327C94.6097 15.1207 95.9737 15.1647 97.7337 15.1647C99.0537 15.1647 100.198 15.1207 101.166 15.0327L116.698 38.9687V20.1367C116.698 18.9927 116.595 18.1421 116.39 17.5847C116.214 17.0274 115.847 16.6314 115.29 16.3967C114.732 16.1327 113.867 15.9714 112.694 15.9127V15.0327C113.75 15.1207 115.246 15.1647 117.182 15.1647C118.942 15.1647 120.306 15.1207 121.274 15.0327V15.9127ZM18.6678 64.2597C18.3841 64.6791 18.1004 64.9812 17.8168 65.1662C17.5331 65.3512 17.1569 65.4437 16.6883 65.4437C16.1826 65.4437 15.7633 65.2957 15.4303 64.9997C15.1096 64.7037 14.8691 64.1857 14.7088 63.4457L14.3018 61.5957C14.1538 60.9544 14.0119 60.4611 13.8763 60.1157C13.7529 59.7704 13.5618 59.4929 13.3028 59.2832C13.0438 59.0736 12.6799 58.9687 12.2113 58.9687H10.4538V63.2237C10.4538 63.6924 10.4908 64.0316 10.5648 64.2412C10.6388 64.4509 10.7744 64.5927 10.9718 64.6667C11.1814 64.7407 11.5083 64.7901 11.9523 64.8147V65.1847C11.3849 65.1477 10.6018 65.1292 9.60276 65.1292C8.5421 65.1292 7.75276 65.1477 7.23476 65.1847V64.8147C7.67876 64.7901 7.99943 64.7407 8.19676 64.6667C8.40643 64.5927 8.54826 64.4509 8.62226 64.2412C8.69626 64.0316 8.73326 63.6924 8.73326 63.2237V54.0477C8.73326 53.5791 8.69626 53.2399 8.62226 53.0302C8.54826 52.8206 8.40643 52.6787 8.19676 52.6047C7.99943 52.5307 7.67876 52.4814 7.23476 52.4567V52.0867C7.75276 52.1237 8.5051 52.1422 9.49176 52.1422L11.4898 52.1237C11.7241 52.1114 11.9893 52.1052 12.2853 52.1052C13.7159 52.1052 14.8136 52.4074 15.5783 53.0117C16.3553 53.6037 16.7438 54.3746 16.7438 55.3242C16.7438 55.8052 16.6266 56.2924 16.3923 56.7857C16.1703 57.2667 15.7879 57.7046 15.2453 58.0992C14.7149 58.4816 14.0181 58.7406 13.1548 58.8762L13.3768 58.9132C14.1908 59.0489 14.7828 59.2956 15.1528 59.6532C15.5228 60.0109 15.7941 60.5782 15.9668 61.3552L16.4293 63.2422C16.5526 63.8096 16.6821 64.2042 16.8178 64.4262C16.9534 64.6482 17.1384 64.7592 17.3728 64.7592C17.5824 64.7592 17.7551 64.7037 17.8908 64.5927C18.0388 64.4817 18.2053 64.3029 18.3903 64.0562L18.6678 64.2597ZM11.8228 52.4567C11.4404 52.4567 11.1506 52.4999 10.9533 52.5862C10.7683 52.6726 10.6388 52.8267 10.5648 53.0487C10.4908 53.2707 10.4538 53.6037 10.4538 54.0477V58.5987H11.6933C12.9143 58.5987 13.7529 58.3274 14.2093 57.7847C14.6656 57.2421 14.8938 56.4897 14.8938 55.5277C14.8938 54.5164 14.6533 53.7517 14.1723 53.2337C13.6913 52.7157 12.9081 52.4567 11.8228 52.4567ZM28.7029 62.8167C28.7029 63.5197 28.746 64.3091 28.8324 65.1847C27.9937 65.1477 26.5815 65.1292 24.5959 65.1292C22.2279 65.1292 20.4395 65.1477 19.2309 65.1847V64.8147C19.6749 64.7901 19.9955 64.7407 20.1929 64.6667C20.4025 64.5927 20.5444 64.4509 20.6184 64.2412C20.6924 64.0316 20.7294 63.6924 20.7294 63.2237V54.0477C20.7294 53.5791 20.6924 53.2399 20.6184 53.0302C20.5444 52.8206 20.4025 52.6787 20.1929 52.6047C19.9955 52.5307 19.6749 52.4814 19.2309 52.4567V52.0867C20.4395 52.1237 22.2279 52.1422 24.5959 52.1422C26.4089 52.1422 27.6977 52.1237 28.4624 52.0867C28.376 52.9007 28.3329 53.6284 28.3329 54.2697C28.3329 54.7507 28.3514 55.1331 28.3884 55.4167H27.9629C27.8765 54.6151 27.7655 54.0231 27.6299 53.6407C27.4942 53.2461 27.266 52.9624 26.9454 52.7897C26.6247 52.6047 26.1375 52.5122 25.4839 52.5122H23.9484C23.5044 52.5122 23.1775 52.5492 22.9679 52.6232C22.7705 52.6849 22.6349 52.8206 22.5609 53.0302C22.4869 53.2399 22.4499 53.5791 22.4499 54.0477V58.4137H23.6709C24.1025 58.4137 24.4355 58.3151 24.6699 58.1177C24.9042 57.9081 25.0584 57.6676 25.1324 57.3962C25.2187 57.1126 25.2865 56.7611 25.3359 56.3417L25.3914 55.9717H25.8169C25.7799 56.4897 25.7614 57.0694 25.7614 57.7107V58.5987C25.7614 59.2277 25.7984 60.1034 25.8724 61.2257H25.4469C25.4345 61.1394 25.3975 60.8434 25.3359 60.3377C25.2742 59.8197 25.1015 59.4312 24.8179 59.1722C24.5465 58.9132 24.1642 58.7837 23.6709 58.7837H22.4499V63.2237C22.4499 63.6924 22.4869 64.0316 22.5609 64.2412C22.6349 64.4509 22.7705 64.5927 22.9679 64.6667C23.1775 64.7284 23.5044 64.7592 23.9484 64.7592H25.2989C26.0635 64.7592 26.6432 64.6606 27.0379 64.4632C27.4449 64.2536 27.7409 63.9267 27.9259 63.4827C28.1109 63.0264 28.2465 62.3604 28.3329 61.4847H28.7584C28.7214 61.8177 28.7029 62.2617 28.7029 62.8167ZM34.4633 51.8832C35.006 51.8832 35.4315 51.9449 35.7398 52.0682C36.0605 52.1792 36.3873 52.3457 36.7203 52.5677C36.9916 52.7404 37.2013 52.8267 37.3493 52.8267C37.4603 52.8267 37.5466 52.7651 37.6083 52.6417C37.67 52.5061 37.7193 52.2964 37.7563 52.0127H38.1818C38.1201 52.7281 38.0893 53.9861 38.0893 55.7867H37.6638C37.5898 54.7877 37.3 53.9491 36.7943 53.2707C36.301 52.5801 35.5795 52.2347 34.6298 52.2347C33.9638 52.2347 33.4211 52.4382 33.0018 52.8452C32.5825 53.2399 32.3728 53.7517 32.3728 54.3807C32.3728 54.8494 32.4776 55.2564 32.6873 55.6017C32.9093 55.9471 33.1868 56.2431 33.5198 56.4897C33.8528 56.7364 34.3276 57.0509 34.9443 57.4332L35.4808 57.7662C36.2578 58.2472 36.8683 58.6727 37.3123 59.0427C37.7686 59.4004 38.1325 59.8136 38.4038 60.2822C38.6751 60.7509 38.8108 61.2997 38.8108 61.9287C38.8108 63.0511 38.4408 63.9206 37.7008 64.5372C36.9608 65.1416 36.0235 65.4437 34.8888 65.4437C34.2968 65.4437 33.8096 65.3821 33.4273 65.2587C33.0573 65.1354 32.6996 64.9689 32.3543 64.7592C32.083 64.5866 31.8733 64.5002 31.7253 64.5002C31.6143 64.5002 31.528 64.5681 31.4663 64.7037C31.4046 64.8271 31.3553 65.0306 31.3183 65.3142H30.8928C30.9421 64.6359 30.9668 63.1559 30.9668 60.8742H31.3923C31.4786 62.1199 31.787 63.1312 32.3173 63.9082C32.8476 64.6852 33.6616 65.0737 34.7593 65.0737C35.4253 65.0737 35.9926 64.8702 36.4613 64.4632C36.93 64.0439 37.1643 63.4272 37.1643 62.6132C37.1643 61.9226 36.93 61.3367 36.4613 60.8557C36.005 60.3747 35.2773 59.8321 34.2783 59.2277C33.5506 58.7837 32.9586 58.3891 32.5023 58.0437C32.0583 57.6984 31.6945 57.2852 31.4108 56.8042C31.1271 56.3109 30.9853 55.7374 30.9853 55.0837C30.9853 54.0477 31.3183 53.2584 31.9843 52.7157C32.6503 52.1607 33.4766 51.8832 34.4633 51.8832ZM50.67 52.0867C50.5837 52.9624 50.5405 53.7517 50.5405 54.4547C50.5405 55.0714 50.559 55.5771 50.596 55.9717H50.1705C50.0719 55.0221 49.9485 54.3191 49.8005 53.8627C49.6525 53.3941 49.3935 53.0549 49.0235 52.8452C48.6535 52.6232 48.0862 52.5122 47.3215 52.5122H46.3225V63.0387C46.3225 63.5567 46.3719 63.9329 46.4705 64.1672C46.5692 64.4016 46.7419 64.5619 46.9885 64.6482C47.2352 64.7346 47.636 64.7901 48.191 64.8147V65.1847C47.5497 65.1477 46.6432 65.1292 45.4715 65.1292C44.2382 65.1292 43.3255 65.1477 42.7335 65.1847V64.8147C43.2885 64.7901 43.6894 64.7346 43.936 64.6482C44.1827 64.5619 44.3554 64.4016 44.454 64.1672C44.5527 63.9329 44.602 63.5567 44.602 63.0387V52.5122H43.603C42.8384 52.5122 42.271 52.6232 41.901 52.8452C41.531 53.0549 41.272 53.3941 41.124 53.8627C40.976 54.3191 40.8527 55.0221 40.754 55.9717H40.3285C40.3655 55.5771 40.384 55.0714 40.384 54.4547C40.384 53.7517 40.3409 52.9624 40.2545 52.0867C41.2782 52.1237 43.0172 52.1422 45.4715 52.1422C47.9135 52.1422 49.6464 52.1237 50.67 52.0867ZM60.8306 63.6307C61.1266 64.3954 61.5521 64.7901 62.1071 64.8147V65.1847C61.6137 65.1477 60.9539 65.1292 60.1276 65.1292C59.0669 65.1292 58.2776 65.1477 57.7596 65.1847V64.8147C58.2282 64.7901 58.5612 64.7346 58.7586 64.6482C58.9682 64.5496 59.0731 64.3769 59.0731 64.1302C59.0731 63.9206 58.9991 63.6307 58.8511 63.2607L57.7226 60.2267H53.2456L52.4871 62.1877C52.2404 62.8537 52.1171 63.3594 52.1171 63.7047C52.1171 64.0871 52.2466 64.3646 52.5056 64.5372C52.7769 64.7099 53.1839 64.8024 53.7266 64.8147V65.1847C53.0236 65.1477 52.3144 65.1292 51.5991 65.1292C51.0441 65.1292 50.5816 65.1477 50.2116 65.1847V64.8147C50.8282 64.6667 51.3154 64.1302 51.6731 63.2052L56.0206 51.9942H56.3166L60.8306 63.6307ZM57.5746 59.8567L55.5026 54.3252L53.3936 59.8567H57.5746ZM74.1114 52.4567C73.6797 52.4814 73.3591 52.5492 73.1494 52.6602C72.9397 52.7589 72.7979 52.9316 72.7239 53.1782C72.6499 53.4126 72.6129 53.7641 72.6129 54.2327V59.8012C72.6129 60.6892 72.5512 61.4539 72.4279 62.0952C72.3169 62.7242 72.1257 63.2669 71.8544 63.7232C71.5461 64.2536 71.0897 64.6729 70.4854 64.9812C69.8934 65.2896 69.2212 65.4437 68.4689 65.4437C67.1122 65.4437 66.0762 65.1107 65.3609 64.4447C64.8182 63.9391 64.4544 63.3656 64.2694 62.7242C64.0844 62.0829 63.9919 61.1271 63.9919 59.8567V54.0477C63.9919 53.5791 63.9549 53.2399 63.8809 53.0302C63.8069 52.8206 63.6651 52.6787 63.4554 52.6047C63.2581 52.5307 62.9374 52.4814 62.4934 52.4567V52.0867C63.0114 52.1237 63.8007 52.1422 64.8614 52.1422C65.8604 52.1422 66.6436 52.1237 67.2109 52.0867V52.4567C66.7669 52.4814 66.4401 52.5307 66.2304 52.6047C66.0331 52.6787 65.8974 52.8206 65.8234 53.0302C65.7494 53.2399 65.7124 53.5791 65.7124 54.0477V60.1712C65.7124 61.1579 65.7802 61.9781 65.9159 62.6317C66.0516 63.2854 66.3291 63.8096 66.7484 64.2042C67.1801 64.5989 67.8091 64.7962 68.6354 64.7962C69.9427 64.7962 70.8616 64.3769 71.3919 63.5382C71.9222 62.6996 72.1874 61.5217 72.1874 60.0047V54.2327C72.1874 53.5667 72.0641 53.1104 71.8174 52.8637C71.5831 52.6171 71.1452 52.4814 70.5039 52.4567V52.0867C70.9479 52.1237 71.5769 52.1422 72.3909 52.1422C73.1309 52.1422 73.7044 52.1237 74.1114 52.0867V52.4567ZM86.8142 64.2597C86.5306 64.6791 86.2469 64.9812 85.9632 65.1662C85.6796 65.3512 85.3034 65.4437 84.8347 65.4437C84.3291 65.4437 83.9097 65.2957 83.5767 64.9997C83.2561 64.7037 83.0156 64.1857 82.8552 63.4457L82.4482 61.5957C82.3002 60.9544 82.1584 60.4611 82.0227 60.1157C81.8994 59.7704 81.7082 59.4929 81.4492 59.2832C81.1902 59.0736 80.8264 58.9687 80.3577 58.9687H78.6002V63.2237C78.6002 63.6924 78.6372 64.0316 78.7112 64.2412C78.7852 64.4509 78.9209 64.5927 79.1182 64.6667C79.3279 64.7407 79.6547 64.7901 80.0987 64.8147V65.1847C79.5314 65.1477 78.7482 65.1292 77.7492 65.1292C76.6886 65.1292 75.8992 65.1477 75.3812 65.1847V64.8147C75.8252 64.7901 76.1459 64.7407 76.3432 64.6667C76.5529 64.5927 76.6947 64.4509 76.7687 64.2412C76.8427 64.0316 76.8797 63.6924 76.8797 63.2237V54.0477C76.8797 53.5791 76.8427 53.2399 76.7687 53.0302C76.6947 52.8206 76.5529 52.6787 76.3432 52.6047C76.1459 52.5307 75.8252 52.4814 75.3812 52.4567V52.0867C75.8992 52.1237 76.6516 52.1422 77.6382 52.1422L79.6362 52.1237C79.8706 52.1114 80.1357 52.1052 80.4317 52.1052C81.8624 52.1052 82.9601 52.4074 83.7247 53.0117C84.5017 53.6037 84.8902 54.3746 84.8902 55.3242C84.8902 55.8052 84.7731 56.2924 84.5387 56.7857C84.3167 57.2667 83.9344 57.7046 83.3917 58.0992C82.8614 58.4816 82.1646 58.7406 81.3012 58.8762L81.5232 58.9132C82.3372 59.0489 82.9292 59.2956 83.2992 59.6532C83.6692 60.0109 83.9406 60.5782 84.1132 61.3552L84.5757 63.2422C84.6991 63.8096 84.8286 64.2042 84.9642 64.4262C85.0999 64.6482 85.2849 64.7592 85.5192 64.7592C85.7289 64.7592 85.9016 64.7037 86.0372 64.5927C86.1852 64.4817 86.3517 64.3029 86.5367 64.0562L86.8142 64.2597ZM79.9692 52.4567C79.5869 52.4567 79.2971 52.4999 79.0997 52.5862C78.9147 52.6726 78.7852 52.8267 78.7112 53.0487C78.6372 53.2707 78.6002 53.6037 78.6002 54.0477V58.5987H79.8397C81.0607 58.5987 81.8994 58.3274 82.3557 57.7847C82.8121 57.2421 83.0402 56.4897 83.0402 55.5277C83.0402 54.5164 82.7997 53.7517 82.3187 53.2337C81.8377 52.7157 81.0546 52.4567 79.9692 52.4567ZM97.0898 63.6307C97.3858 64.3954 97.8113 64.7901 98.3663 64.8147V65.1847C97.873 65.1477 97.2132 65.1292 96.3868 65.1292C95.3262 65.1292 94.5368 65.1477 94.0188 65.1847V64.8147C94.4875 64.7901 94.8205 64.7346 95.0178 64.6482C95.2275 64.5496 95.3323 64.3769 95.3323 64.1302C95.3323 63.9206 95.2583 63.6307 95.1103 63.2607L93.9818 60.2267H89.5048L88.7463 62.1877C88.4997 62.8537 88.3763 63.3594 88.3763 63.7047C88.3763 64.0871 88.5058 64.3646 88.7648 64.5372C89.0362 64.7099 89.4432 64.8024 89.9858 64.8147V65.1847C89.2828 65.1477 88.5737 65.1292 87.8583 65.1292C87.3033 65.1292 86.8408 65.1477 86.4708 65.1847V64.8147C87.0875 64.6667 87.5747 64.1302 87.9323 63.2052L92.2798 51.9942H92.5758L97.0898 63.6307ZM93.8338 59.8567L91.7618 54.3252L89.6528 59.8567H93.8338ZM110.287 52.4567C109.855 52.4814 109.535 52.5492 109.325 52.6602C109.115 52.7589 108.973 52.9316 108.899 53.1782C108.825 53.4126 108.788 53.7641 108.788 54.2327V65.2772H108.363L100.593 53.2707V63.0387C100.593 63.5197 100.63 63.8774 100.704 64.1117C100.79 64.3461 100.951 64.5187 101.185 64.6297C101.419 64.7284 101.783 64.7901 102.276 64.8147V65.1847C101.832 65.1477 101.203 65.1292 100.389 65.1292C99.6493 65.1292 99.0758 65.1477 98.6688 65.1847V64.8147C99.1005 64.7901 99.4212 64.7284 99.6308 64.6297C99.8405 64.5187 99.9823 64.3461 100.056 64.1117C100.13 63.8651 100.167 63.5074 100.167 63.0387V54.0477C100.167 53.5791 100.13 53.2399 100.056 53.0302C99.9823 52.8206 99.8405 52.6787 99.6308 52.6047C99.4335 52.5307 99.1128 52.4814 98.6688 52.4567V52.0867C99.0758 52.1237 99.6493 52.1422 100.389 52.1422C100.944 52.1422 101.425 52.1237 101.832 52.0867L108.363 62.1507V54.2327C108.363 53.7517 108.32 53.3941 108.233 53.1597C108.159 52.9254 108.005 52.7589 107.771 52.6602C107.537 52.5492 107.173 52.4814 106.679 52.4567V52.0867C107.123 52.1237 107.752 52.1422 108.566 52.1422C109.306 52.1422 109.88 52.1237 110.287 52.0867V52.4567ZM121.906 52.0867C121.82 52.9624 121.776 53.7517 121.776 54.4547C121.776 55.0714 121.795 55.5771 121.832 55.9717H121.406C121.308 55.0221 121.184 54.3191 121.036 53.8627C120.888 53.3941 120.629 53.0549 120.259 52.8452C119.889 52.6232 119.322 52.5122 118.557 52.5122H117.558V63.0387C117.558 63.5567 117.608 63.9329 117.706 64.1672C117.805 64.4016 117.978 64.5619 118.224 64.6482C118.471 64.7346 118.872 64.7901 119.427 64.8147V65.1847C118.786 65.1477 117.879 65.1292 116.707 65.1292C115.474 65.1292 114.561 65.1477 113.969 65.1847V64.8147C114.524 64.7901 114.925 64.7346 115.172 64.6482C115.419 64.5619 115.591 64.4016 115.69 64.1672C115.789 63.9329 115.838 63.5567 115.838 63.0387V52.5122H114.839C114.074 52.5122 113.507 52.6232 113.137 52.8452C112.767 53.0549 112.508 53.3941 112.36 53.8627C112.212 54.3191 112.089 55.0221 111.99 55.9717H111.564C111.601 55.5771 111.62 55.0714 111.62 54.4547C111.62 53.7517 111.577 52.9624 111.49 52.0867C112.514 52.1237 114.253 52.1422 116.707 52.1422C119.149 52.1422 120.882 52.1237 121.906 52.0867Z" fill="#160E0C"/>
</svg>
