<svg width="48" height="49" viewBox="0 0 48 49" fill="none" xmlns="http://www.w3.org/2000/svg">
<path fill-rule="evenodd" clip-rule="evenodd" d="M0 24.7827C0 11.5279 10.7452 0.782715 24 0.782715C37.2548 0.782715 48 11.5279 48 24.7827C48 38.0375 37.2548 48.7827 24 48.7827C10.7452 48.7827 0 38.0375 0 24.7827ZM37.9851 18.9222L33.2395 18.919C30.5781 17.1753 27.3472 16.251 23.7664 16.251C20.0501 16.251 16.6944 17.1981 14.048 18.9536L9.6 18.9569C9.6 18.9569 10.6453 20.3899 10.9835 21.8273C10.1184 23.02 9.60427 24.4877 9.60427 26.0798C9.60427 30.0564 12.7936 33.2916 16.7136 33.2916C18.9547 33.2916 20.9525 32.2319 22.256 30.5857L23.7696 32.8857L25.2949 30.5651C25.9808 31.4505 26.8661 32.1681 27.904 32.6573C29.6299 33.4626 31.5637 33.5405 33.344 32.8738C37.0219 31.4927 38.9099 27.3332 37.5499 23.6067C37.3109 22.9497 36.9845 22.3544 36.5941 21.8186C36.9269 20.3715 37.9851 18.9222 37.9851 18.9222Z" fill="#EB5529"/>
<path fill-rule="evenodd" clip-rule="evenodd" d="M21.4101 29.3031C20.3893 30.8303 18.6635 31.8369 16.7115 31.8369C13.5819 31.8369 11.0357 29.2511 11.0357 26.0809C11.0357 22.9042 13.5829 20.3228 16.7115 20.3228C19.84 20.3228 22.3861 22.9042 22.3861 26.0809C22.3861 26.2747 22.3488 26.4576 22.3296 26.6448C22.2347 27.6189 21.9264 28.5314 21.4101 29.3031ZM13.1083 26.0117C13.1083 27.9783 14.6848 29.5748 16.6219 29.5748C18.5547 29.5748 20.1301 27.9783 20.1301 26.0117C20.1301 24.0504 18.5536 22.4529 16.6219 22.4529C14.6848 22.454 13.1083 24.0494 13.1083 26.0117Z" fill="#EB5529"/>
<path fill-rule="evenodd" clip-rule="evenodd" d="M32.8459 31.5089C31.424 32.0404 29.8816 31.9808 28.5045 31.3358C27.5275 30.8768 26.7275 30.1571 26.1515 29.2641C25.9168 28.9026 25.7099 28.5184 25.5584 28.0995C25.3856 27.6254 25.2992 27.1362 25.2523 26.6438C25.1573 25.6447 25.3003 24.6327 25.7248 23.6976C26.3605 22.3003 27.4933 21.2363 28.9152 20.7038C31.8517 19.6052 35.12 21.1335 36.2048 24.1121C37.2885 27.0897 35.7813 30.4049 32.8459 31.5089ZM27.3536 26.0117C27.3536 27.9783 28.928 29.5748 30.8651 29.5748C32.7989 29.5748 34.3723 27.9783 34.3723 26.0117C34.3723 24.0504 32.7989 22.4529 30.8651 22.4529C28.9291 22.454 27.3536 24.0494 27.3536 26.0117Z" fill="#EB5529"/>
<path fill-rule="evenodd" clip-rule="evenodd" d="M14.3189 26.0117C14.3189 24.7258 15.3547 23.6792 16.624 23.6792C17.8912 23.6792 18.9216 24.7269 18.9216 26.0117C18.9216 27.3018 17.8912 28.3495 16.624 28.3495C15.3547 28.3506 14.3189 27.3029 14.3189 26.0117ZM17.8005 26.0117C17.8005 25.3514 17.2715 24.8157 16.6197 24.8167C15.9659 24.8167 15.4379 25.3514 15.4379 26.0117C15.4379 26.673 15.9659 27.2142 16.6197 27.2142C17.2715 27.2142 17.8005 26.673 17.8005 26.0117Z" fill="#EB5529"/>
<path fill-rule="evenodd" clip-rule="evenodd" d="M28.5643 26.0117C28.5643 24.7258 29.5968 23.6792 30.8672 23.6792C32.1344 23.6792 33.1637 24.7269 33.1637 26.0117C33.1637 27.3018 32.1344 28.3495 30.8672 28.3495C29.5957 28.3506 28.5643 27.3029 28.5643 26.0117ZM32.0448 26.0117C32.0448 25.3514 31.5179 24.8157 30.8661 24.8167C30.2101 24.8167 29.6843 25.3514 29.6843 26.0117C29.6843 26.673 30.2101 27.2142 30.8661 27.2142C31.5179 27.2142 32.0448 26.673 32.0448 26.0117Z" fill="#EB5529"/>
<path fill-rule="evenodd" clip-rule="evenodd" d="M28.4171 19.3368C29.1573 19.0597 29.9147 18.9255 30.6624 18.9049C28.6251 17.9784 26.3189 17.5098 23.7643 17.5098C21.2288 17.5098 18.8896 17.9903 16.8533 18.8725C20.5387 18.9471 23.5349 21.876 23.7931 25.5668C23.856 24.7193 24.0597 23.8816 24.4203 23.0882C25.2149 21.3348 26.6357 20.0035 28.4171 19.3368Z" fill="#EB5529"/>
</svg>
